<svg id="Layer_1" data-name="Layer 1" xmlns="http://www.w3.org/2000/svg" width="725" height="152.6277" viewBox="0 0 725 152.6277"><defs><style>.cls-1,.cls-2{fill:#fff;}.cls-2{fill-rule:evenodd;}</style></defs><title>multinational-logo</title><path class="cls-1" d="M699.7257,282.9364l-2.2558-.59c.0161-.593.0354-1.4728.0354-2.5556,0-1.1247-.0193-2.0109-.0354-2.6942a44.3389,44.3389,0,0,1,8.8785-4.5278,18.9558,18.9558,0,0,1,5.92-.8734,17.6946,17.6946,0,0,1,8.2243,1.7564,11.2227,11.2227,0,0,1,4.96,4.9919,13.9268,13.9268,0,0,1,1.1087,6.1811l-.2193,7.4122v12.0689a10.1563,10.1563,0,0,0,.3062,2.8134l.8443.9024a5.3832,5.3832,0,0,0,1.7854.3094l2.8005.2481v2.32c-2.3428-.2191-4.4054-.3-6.1746-.3-1.6919,0-3.97.0806-6.8289.3l.2353-7.1608c-5.817,4.17-9.2523,6.526-10.3449,7.0545a9.4,9.4,0,0,1-4.09.796c-3.4386,0-6.1167-.8894-8.0213-2.6233a8.9967,8.9967,0,0,1-2.9069-6.961,12.6957,12.6957,0,0,1,1.0281-5.1079,11.4827,11.4827,0,0,1,2.3912-3.6674,9.98,9.98,0,0,1,2.8618-1.9949,47.1858,47.1858,0,0,1,8.0438-2.3558,100.73,100.73,0,0,1,11.0377-1.8466,14.3676,14.3676,0,0,0-.98-6.01,8.0345,8.0345,0,0,0-3.4741-3.532,11.9177,11.9177,0,0,0-5.9039-1.3632,13.9136,13.9136,0,0,0-4.4345.6413,7.9062,7.9062,0,0,0-2.34,1.0893l-.7412,1.4663c-.7734,1.6307-1.3471,2.8811-1.7113,3.8124m19.5843,6.3455a87.6,87.6,0,0,0-9.4812,2.0045,18.59,18.59,0,0,0-5.5365,2.2559,5.6653,5.6653,0,0,0-1.7016,2.0722,8.9734,8.9734,0,0,0-1.1311,4.4988,6.1067,6.1067,0,0,0,1.7628,4.6633,6.7327,6.7327,0,0,0,4.8727,1.7047,11.8575,11.8575,0,0,0,5.6622-1.563,22.8037,22.8037,0,0,0,5.5527-4.6761Z" transform="translate(-33.1378 -229.5231)"/><path class="cls-1" d="M736.3458,310.7011v-2.32l3.99-.0419,1.4437-.3029.7413-.68a6.7655,6.7655,0,0,0,.5543-2.8746q.0435-.5028.3-11.6049v-16.81c0-4.5086-.0806-9.1653-.2-13.9574a26.03,26.03,0,0,0-.4963-5.43l-.68-.5607c-.4222-.2-2.3912-.2836-5.9072-.2836v-2.3945q9.6149-1.15,13.3645-2.8424l.854-.2449.4673.174.19.5-.0967.8154-.0515,1.3471c-.1257,4.8275-.21,8.959-.2385,12.3364l-.0774,6.3358v21.0151c.1064,7.0029.19,10.8121.2,11.347a6.8011,6.8011,0,0,0,.522,2.9682l.5156.6445,1.0281.4221c.19.0162,1.7821.0645,4.7631.1225v2.32c-3.8608-.2223-7.28-.3-10.1966-.3-2.7714,0-6.4453.0773-10.9892.3" transform="translate(-33.1378 -229.5231)"/><path class="cls-1" d="M230.4065,255.7347v-2.5781c3.01.0934,5.8589.145,8.5755.145,2.7522,0,5.3883-.0516,7.95-.145,2.5008,5.3948,4.7728,10.1289,6.8579,14.2056l16.181,31.5984,14.5666-29.0074q5.9507-11.81,7.9922-16.7966c3.02.0934,5.5528.145,7.6378.145,1.8982,0,4.9919-.0516,9.2491-.145v2.5781a34.5832,34.5832,0,0,0-6.1811.4222l-1.4986.9539c-.38.5447-.58,1.8466-.6412,3.9446-.01.522-.0967,4.3635-.2192,11.4759v18.7561c0,3.6835.0806,7.2639.2192,10.7154.1063,2.5749.29,4.0993.6283,4.5859l1.5663,1.0764a31.4662,31.4662,0,0,0,6.1263.4221v2.6136c-5.74-.2578-9.8131-.3835-12.1657-.3835-1.8981,0-6.123.1257-12.62.3835v-2.6136a32.32,32.32,0,0,0,6.1811-.4221l1.4985-.96c.3706-.5382.57-1.8337.6413-3.9252q.0338-.8508.2256-11.4921V261.5581L278.447,290.8168c-2.301,4.5537-4.125,8.2276-5.4206,11.0023q-1.397,3.0309-4.2828,9.6326h-1.65a17.9985,17.9985,0,0,0-1.0312-2.4621l-2.894-5.8814-20.3867-40.1966v28.3758c0,3.6835.0451,7.2639.1611,10.7154.1,2.5749.2868,4.0993.6156,4.5859l1.5919,1.0764a31.8615,31.8615,0,0,0,6.1586.4221v2.6136l-10.2771-.3-10.6252.3v-2.6136a31.6927,31.6927,0,0,0,6.11-.4221l1.534-.96a10.0336,10.0336,0,0,0,.6509-3.9252c.0227-.5672.0967-4.3926.187-11.4921V272.5313q0-5.4961-.1193-10.7637c-.0677-2.5524-.2964-4.0638-.6283-4.544l-1.5824-1.0667a33.9483,33.9483,0,0,0-6.1521-.4222" transform="translate(-33.1378 -229.5231)"/><path class="cls-1" d="M361.8914,308.38v2.32c-3.732-.2224-6.5453-.3-8.4628-.3a62.4862,62.4862,0,0,0-6.3939.3c.2-2.22.3127-4.6536.3867-7.3993a74.2911,74.2911,0,0,0-6.0908,5.3207l-1.5759,1.1054a14.71,14.71,0,0,1-3.6836,1.4179,19.4416,19.4416,0,0,1-4.3892.4222,16.5066,16.5066,0,0,1-5.7589-.8669,10.6317,10.6317,0,0,1-3.9833-2.7361,8.5848,8.5848,0,0,1-1.9143-3.4515,17.5442,17.5442,0,0,1-.6735-5.1369c0-.9314.0387-1.8337.1063-2.6587a24.1342,24.1342,0,0,0,.1161-2.4847V287.32c0-.7252-.0484-2.4815-.1354-5.33a12.5928,12.5928,0,0,0-.3964-3.4676l-.522-.6671a4.7194,4.7194,0,0,0-2.285-.3931c-1.55,0-2.794-.0065-3.7157-.0419v-2.3011c6.1392-.6574,10.5575-1.6983,13.3161-3.1356l1.08-.3545.477.203.1966.622-.0323.8025c-.1321.8829-.2256,2.4878-.3093,4.979-.1612,4.515-.2579,7.5218-.2579,9.0848v7.902a22.94,22.94,0,0,0,.7025,6.9416,6.0108,6.0108,0,0,0,2.72,3.1937,9.77,9.77,0,0,0,5.0241,1.1892,13.0131,13.0131,0,0,0,4.07-.6607,12.5317,12.5317,0,0,0,3.6448-1.94,13.79,13.79,0,0,0,2.4267-2.4912l1.2472-1.7982.4093-1.8563c.1128-2.3848.1868-4.7567.1868-7.077V287.32c0-.7252-.0225-2.4815-.1289-5.33a13.39,13.39,0,0,0-.38-3.4676l-.5511-.6671a4.5838,4.5838,0,0,0-2.2591-.3931c-1.5823,0-2.807-.0065-3.719-.0419v-2.3011c6.1006-.6574,10.5349-1.6983,13.2613-3.1356l1.0829-.3545.48.203.2126.622-.0354.8025c-.1.8829-.1772,2.5588-.3,5.1305-.1579,4.4118-.2449,7.37-.2449,8.9333v5.5236l.087,5.6591c.1128,3.2581.1869,5.1852.2288,5.72a7.3075,7.3075,0,0,0,.4608,2.9681l.5512.6445,1.0473.4222c.1257.0226,1.6887.0645,4.6762.1224" transform="translate(-33.1378 -229.5231)"/><path class="cls-1" d="M366.2816,310.7011v-2.32l4.0123-.0419,1.4114-.3029.7671-.68a7.1364,7.1364,0,0,0,.5543-2.8746c.0193-.3352.132-4.2089.2836-11.6049v-16.81q0-6.7629-.2063-13.9574a25.6815,25.6815,0,0,0-.4608-5.43l-.6865-.5607c-.4222-.2-2.4137-.2836-5.9168-.2836v-2.3945c6.4325-.767,10.8669-1.7112,13.3935-2.8424l.8314-.2449.48.174.1709.5-.0677.8154-.0676,1.3471c-.1419,4.8275-.2128,8.959-.2579,12.3364l-.058,6.3358v21.0151c.1031,7.0029.174,10.8121.1966,11.347a7.4545,7.4545,0,0,0,.5156,2.9682l.5156.6445,1.0313.4221c.1772.0162,1.7757.0645,4.75.1225v2.32c-3.8479-.2223-7.2511-.3-10.1966-.3-2.778,0-6.4454.0773-10.9958.3" transform="translate(-33.1378 -229.5231)"/><path class="cls-1" d="M391.4937,278.8945v-1.6757A66.6373,66.6373,0,0,0,398.01,274.46V262.1527a37.7756,37.7756,0,0,0,7.2318-3.1227l1.0151.8088c-.3029,2.243-.6509,7.1737-1.0151,14.8276,2.2623.0226,3.6384.0451,4.08.0451.2642,0,1.7241-.029,4.3989-.087,1.4825-.0225,2.6007-.0838,3.3323-.1643l.3126.28-.8927,3.7738c-1.808-.0258-3.4482-.0258-4.95-.0258-1.5275,0-3.61,0-6.281.0258l-.2127,16.4969a52.9347,52.9347,0,0,0,.09,7.193l.8025,2.0593,1.55,1.3954a9.7112,9.7112,0,0,0,3.2614.825,19.6241,19.6241,0,0,0,2.8167-.1611,14.8091,14.8091,0,0,0,2.7424-.7058l.5028,1.5759c-1.3471.9959-2.63,2.0529-3.88,3.1228a14.5763,14.5763,0,0,1-3.02.7444,24.7968,24.7968,0,0,1-3.2388.2063,10.4188,10.4188,0,0,1-3.6094-.5221,7.758,7.758,0,0,1-2.4363-1.3406,6.9479,6.9479,0,0,1-1.84-2.2108,10.7164,10.7164,0,0,1-.954-4.2217c.0257-1.8337.0774-3.8253.1676-6.01l.0257-1.4309V278.7238h-1.737c-1.4147,0-3.02.0709-4.7791.1707" transform="translate(-33.1378 -229.5231)"/><path class="cls-1" d="M419.9547,277.3383v-2.3074a46.6865,46.6865,0,0,0,13.89-3.4032l.9442.6478c-.2062,5.7686-.3416,10.1611-.3416,13.2065v7.3606c.1418,7.0352.2417,10.8476.2578,11.3826a8.164,8.164,0,0,0,.4641,2.968l.564.6414,1.0409.4254c.1869.0225,1.7531.0644,4.7179.1192v2.3235c-4.3409-.2223-7.7763-.3029-10.3576-.3029-2.2785,0-6.007.0806-11.18.3029v-2.3235l4.0735-.0419,1.3986-.3029.7283-.68a6.6318,6.6318,0,0,0,.6252-2.8715c0-.3576.0645-4.2281.2095-11.64v-7.1221q0-6.0329-.4319-7.1543l-.9248-.9185a26.1534,26.1534,0,0,0-5.6784-.3094m10.4093-23.7028a4.5828,4.5828,0,0,1,3.3805,1.3342,4.3432,4.3432,0,0,1,1.3955,3.242,4.2347,4.2347,0,0,1-1.4245,3.21,4.6827,4.6827,0,0,1-3.3515,1.3342,4.784,4.784,0,0,1-3.4129-1.3342,4.2531,4.2531,0,0,1-1.4082-3.21,4.3565,4.3565,0,0,1,1.4082-3.242,4.7036,4.7036,0,0,1,3.4129-1.3342" transform="translate(-33.1378 -229.5231)"/><path class="cls-1" d="M444.6457,310.7011v-2.32l4.0766-.0419,1.3955-.3029.77-.68a6.9531,6.9531,0,0,0,.5865-2.8746c0-.3577.09-4.2314.2-11.64v-4.805q0-3.2242-.11-6.9642a7.9557,7.9557,0,0,0-.4189-2.8295l-.9475-.6735a30.8254,30.8254,0,0,0-5.5526-.187v-2.3074c5.746-.7573,9.9354-1.7532,12.61-2.9649l1.1473-.4157.4576.2224.1579.6155-.0322.6445c-.0838.9636-.1644,3.0165-.2547,6.1425l7.9214-6.4422a20.5828,20.5828,0,0,1,6.6291-1.2085,16.4726,16.4726,0,0,1,6.5614,1.331,10.2876,10.2876,0,0,1,6.7031,8.466,93.5762,93.5762,0,0,1,.31,10.18V298.81a57.0806,57.0806,0,0,0,.28,7.1737l.68,1.6822,1.3825.5929,4.5375.1225v2.32c-2.7682-.2223-5.0595-.3-6.9449-.3-1.5758,0-4.2281.0773-7.9374.3.4061-6.6677.593-10.9023.593-12.6587v-6.803a45.2469,45.2469,0,0,0-.48-8.3532,7.52,7.52,0,0,0-3.2936-4.37,11.1917,11.1917,0,0,0-6.1972-1.6564,11.9857,11.9857,0,0,0-5.83,1.44,9.1654,9.1654,0,0,0-3.7835,3.31c-.76,1.2471-1.1312,3.3741-1.1312,6.339v4.892c.1419,7.0384.216,10.8476.216,11.3825a8.5671,8.5671,0,0,0,.5059,2.9682l.5254.6445,1.0667.4221c.1643.0162,1.7338.0645,4.7212.1225v2.32c-3.4837-.2223-6.5968-.3-9.42-.3-2.4009,0-6.2907.0773-11.7015.3" transform="translate(-33.1378 -229.5231)"/><path class="cls-1" d="M503.5772,282.9364l-2.2721-.59c.0355-.593.0355-1.4728.0355-2.5556,0-1.1247,0-2.0109-.0355-2.6942a45.7741,45.7741,0,0,1,8.8882-4.5278,18.881,18.881,0,0,1,5.9329-.8734,17.5146,17.5146,0,0,1,8.1953,1.7564,11.0547,11.0547,0,0,1,4.963,4.9919,14.1636,14.1636,0,0,1,1.1054,6.1811l-.2,7.4122v12.0689a8.7511,8.7511,0,0,0,.3351,2.8134l.825.9024a5.1688,5.1688,0,0,0,1.7693.3094l2.7812.2481v2.32c-2.3461-.2191-4.3958-.3-6.1328-.3-1.7145,0-3.9929.0806-6.8418.3l.2128-7.1608q-8.7014,6.2553-10.3223,7.0545a9.5593,9.5593,0,0,1-4.0993.796c-3.4289,0-6.1005-.8894-8.0374-2.6233a8.9923,8.9923,0,0,1-2.8714-6.961,12.6825,12.6825,0,0,1,.9958-5.1079,11.3043,11.3043,0,0,1,2.4139-3.6674,9.4143,9.4143,0,0,1,2.8649-1.9949,46.4136,46.4136,0,0,1,8.0309-2.3558,102.2072,102.2072,0,0,1,11.0249-1.8466,13.7836,13.7836,0,0,0-.9733-6.01,8.082,8.082,0,0,0-3.4515-3.532,12.1067,12.1067,0,0,0-5.9426-1.3632,13.9294,13.9294,0,0,0-4.4087.6413,6.9526,6.9526,0,0,0-2.3074,1.0893l-.7831,1.4663c-.7509,1.6307-1.3374,2.8811-1.6951,3.8124m19.5617,6.3455a89.0875,89.0875,0,0,0-9.4651,2.0045,18.8307,18.8307,0,0,0-5.5559,2.2559,5.8124,5.8124,0,0,0-1.6919,2.0722,9.1915,9.1915,0,0,0-1.1022,4.4988,6.0731,6.0731,0,0,0,1.7435,4.6633,6.7346,6.7346,0,0,0,4.8566,1.7047,11.7508,11.7508,0,0,0,5.6622-1.563,22.2788,22.2788,0,0,0,5.5528-4.6761Z" transform="translate(-33.1378 -229.5231)"/><path class="cls-1" d="M539.9385,278.8945v-1.6757a64.7619,64.7619,0,0,0,6.5388-2.7586V262.1527a37.9062,37.9062,0,0,0,7.2349-3.1227l1.0055.8088c-.3094,2.243-.6575,7.1737-1.0055,14.8276,2.2526.0226,3.6255.0451,4.0927.0451.2353,0,1.7209-.029,4.3829-.087,1.476-.0225,2.5814-.0838,3.3452-.1643l.28.28-.896,3.7738c-1.8047-.0258-3.4353-.0258-4.9532-.0258-1.5083,0-3.6063,0-6.252.0258l-.2224,16.4969a60.8316,60.8316,0,0,0,.0709,7.193l.8121,2.0593,1.54,1.3954a9.9682,9.9682,0,0,0,3.2776.825,19.6715,19.6715,0,0,0,2.82-.1611,14.3209,14.3209,0,0,0,2.7425-.7058l.5156,1.5759c-1.3374.9959-2.6136,2.0529-3.89,3.1228a14.376,14.376,0,0,1-3.0068.7444,25.331,25.331,0,0,1-3.2548.2063,10.1961,10.1961,0,0,1-3.5934-.5221,8.2663,8.2663,0,0,1-2.4557-1.3406,7.2022,7.2022,0,0,1-1.8369-2.2108,11.1814,11.1814,0,0,1-.96-4.2217c.0451-1.8337.0806-3.8253.174-6.01l.0323-1.4309V278.7238h-1.74c-1.4309,0-3.02.0709-4.7985.1707" transform="translate(-33.1378 -229.5231)"/><path class="cls-1" d="M568.4217,277.3383v-2.3074a47.1278,47.1278,0,0,0,13.9123-3.4032l.9314.6478c-.2289,5.7686-.3448,10.1611-.3448,13.2065v7.3606c.1482,7.0352.2384,10.8476.2545,11.3826a7.7747,7.7747,0,0,0,.4609,2.968l.5607.6414,1.0313.4254c.1579.0225,1.74.0644,4.7276.1192v2.3235c-4.3537-.2223-7.7666-.3029-10.3512-.3029-2.2849,0-6.0232.0806-11.1827.3029v-2.3235l4.0767-.0419,1.4019-.3029.738-.68a6.8659,6.8659,0,0,0,.5961-2.8715c0-.3576.0645-4.2281.2159-11.64v-7.1221c0-4.0219-.1514-6.4035-.4318-7.1543l-.9024-.9185a26.5872,26.5872,0,0,0-5.6944-.3094m10.4029-23.7028a4.6134,4.6134,0,0,1,3.38,1.3342,4.4134,4.4134,0,0,1,1.418,3.242,4.2665,4.2665,0,0,1-1.4341,3.21,4.7621,4.7621,0,0,1-3.3644,1.3342,4.8812,4.8812,0,0,1-3.4193-1.3342,4.2526,4.2526,0,0,1-1.4084-3.21,4.356,4.356,0,0,1,1.4084-3.242,4.7973,4.7973,0,0,1,3.4193-1.3342" transform="translate(-33.1378 -229.5231)"/><path class="cls-1" d="M594.8277,292.04c0-6.0683,1.9981-10.999,6.0523-14.8211,4.08-3.8479,9.2716-5.759,15.617-5.759,5.9653,0,10.8412,1.8048,14.5859,5.3723a18.12,18.12,0,0,1,5.62,13.8027,20.9549,20.9549,0,0,1-2.8875,10.8476,20.0916,20.0916,0,0,1-8.1921,7.6635A24.7585,24.7585,0,0,1,613.99,311.94a20.0563,20.0563,0,0,1-8.3854-1.5824,17.0486,17.0486,0,0,1-5.5914-3.9607,19.3111,19.3111,0,0,1-3.2226-4.9145,22.6021,22.6021,0,0,1-1.9627-9.4425m8.0536-3.0229a31.1768,31.1768,0,0,0,1.76,10.1482,14.7435,14.7435,0,0,0,5.0435,7.5379,12.1511,12.1511,0,0,0,7.1931,2.3654,10.6944,10.6944,0,0,0,8.2887-3.7318c2.214-2.4912,3.3064-6.3165,3.3064-11.4857a28.4806,28.4806,0,0,0-1.9594-11.1247c-1.347-3.1292-3.0357-5.3431-5.095-6.6194a12.4655,12.4655,0,0,0-6.7612-1.9335,10.8266,10.8266,0,0,0-8.5111,3.6255q-3.2532,3.611-3.2645,11.2181" transform="translate(-33.1378 -229.5231)"/><path class="cls-1" d="M640.7981,310.7011v-2.32l4.096-.0419,1.3761-.3029.7669-.68a7.6019,7.6019,0,0,0,.6156-2.8746q0-.5366.19-11.64v-4.805c0-2.1495-.0483-4.47-.1192-6.9642a8.2245,8.2245,0,0,0-.4094-2.8295l-.9635-.6735a30.7324,30.7324,0,0,0-5.5526-.187v-2.3074q8.5947-1.136,12.5845-2.9649l1.1537-.4157.4673.2224.1869.6155-.0451.6445c-.1.9636-.174,3.0165-.2481,6.1425l7.9149-6.4422a20.5575,20.5575,0,0,1,6.6032-1.2085,16.1755,16.1755,0,0,1,6.5485,1.331,10.9657,10.9657,0,0,1,4.6536,3.3677,11.2076,11.2076,0,0,1,2.0818,5.0983,91.91,91.91,0,0,1,.2933,10.18V298.81a51.9784,51.9784,0,0,0,.319,7.1737l.6349,1.6822,1.4018.5929,4.5569.1225v2.32c-2.7779-.2223-5.1079-.3-6.9449-.3-1.6016,0-4.2378.0773-7.95.3.4158-6.6677.6252-10.9023.6252-12.6587v-6.803a41.65,41.65,0,0,0-.5285-8.3532,7.4237,7.4237,0,0,0-3.29-4.37,11.0628,11.0628,0,0,0-6.1747-1.6564,11.9936,11.9936,0,0,0-5.8525,1.44,9.364,9.364,0,0,0-3.7737,3.31c-.7347,1.2471-1.1182,3.3741-1.1182,6.339v4.892c.1256,7.0384.2,10.8476.2,11.3825a8.4877,8.4877,0,0,0,.5222,2.9682l.493.6445,1.0989.4221c.1709.0162,1.7177.0645,4.7277.1225v2.32c-3.4837-.2223-6.6355-.3-9.4425-.3-2.3847,0-6.297.0773-11.6982.3" transform="translate(-33.1378 -229.5231)"/><rect class="cls-1" x="196.6638" y="94.0936" width="528.3362" height="2.7006"/><path class="cls-2" d="M346.4673,357.0117a5.9571,5.9571,0,0,0-5.8751,5.9749c0,6.2745,5.8751,9.1524,12.8682,9.1524,5.5785,0,11.7048-3.8092,11.7048-10.4834,0-7.6377-9.9291-11.0763-9.9291-15.6912,0-2.5975,2.2173-3.6739,4.5569-3.6739,1.621,0,4.9662.7026,4.9662,2.5717a1.5491,1.5491,0,0,1-1.5147,1.4116l-.2642.3512c0,.3932,1.1182,1.0731,1.8175,1.0731.9185,0,1.7628-.6348,1.7628-2.2429,0-2.1045-3.6867-4.0832-6.7676-4.0832-3.3451,0-6.69,1.4567-6.69,5.2949,0,5.6687,9.9226,8.84,9.9226,16.4776,0,4.4215-4.3055,8.0954-9.3748,8.0954-6.3744,0-10.9281-2.2269-10.9281-6.8418,0-3.2743,1.7757-5.9781,5.2659-5.9781a19.2065,19.2065,0,0,1,2.42.564l.3577-.4608c0-.3513-2.22-1.5115-4.299-1.5115" transform="translate(-33.1378 -229.5231)"/><path class="cls-2" d="M375.8894,355.5725c-2.4009,0-5.9943,2.73-7.1061,5.2143a19.3252,19.3252,0,0,0-1.8176,7.7022c0,2.4073,1.0152,4.1476,3.3709,4.1476,2.9875,0,6.2843-2.71,8.4338-4.8728v-1.0957c-1.708,1.4116-4.4118,3.6256-6.455,3.6256-2.301,0-2.5362-2.6523-2.42-3.9349l6.0458-4.3474a5.3535,5.3535,0,0,0,2.2172-4.0316,2.1344,2.1344,0,0,0-2.2687-2.4073m-1.9981,1.7176c1.0441,0,1.2794.9668,1.2794,1.6565,0,2.894-3.1357,4.5408-5.1853,6.0747.1515-1.9271,1.6952-7.7312,3.9059-7.7312" transform="translate(-33.1378 -229.5231)"/><path class="cls-2" d="M392.1307,355.673a6.9073,6.9073,0,0,0-4.3152.9378,14.7824,14.7824,0,0,0-4.0767,3.21,20.05,20.05,0,0,0-2.6974,8.9881,4.3228,4.3228,0,0,0,.9378,2.7811l-5.2756,4.5505c-.7573.6509-2.3686,2.1624-2.3686,3.6029,0,2.1979,3.4515,2.4074,5.0306,2.4074a13.11,13.11,0,0,0,6.2359-1.3858c1.7757-.9636,3.6707-2.1624,4.6278-3.8672a19.1772,19.1772,0,0,0,1.4211-4.9726c.1064-.5156,1.6469-8.0922,1.6469-8.0922.1224-.6961,1.4534-5.9619,1.4534-5.9619.7122-.0645,1.2407-.9443,1.84-1.8531l.2384-.3673h-1.0409ZM389.9875,366.74l-1.5275,7.0577c-.88,4.096-1.2956,6.21-6.5292,6.21-1.3148,0-4.2507-.0838-4.2507-2.1141,0-1.6049,2.6169-3.5449,3.6159-4.3248l4.0993-3.2872Zm.3288-1.4244-3.2582,2.3654-1.8562,1.4083a2.4262,2.4262,0,0,1-.9669-2.2107,20.7164,20.7164,0,0,1,1.605-6.6129c.9216-2.3107,2.4041-2.3945,4.5536-2.3945H394.09v.0451l-.2384.1482c-2.2462,1.6468-2.13,1.7919-2.9069,4.6214Z" transform="translate(-33.1378 -229.5231)"/><path class="cls-2" d="M412.8091,355.4223s-2.2559,1.1183-3.3387,1.6887l-2.2527,9.7679c-1.3213.651-4.0284,2.7619-4.9855,2.7619-.6123,0-.7766-.9346-.7766-1.4245,0-2.4008,2.63-10.8539,2.63-12.0915,0-.5027-.38-.5027-.4835-.5027a15.5041,15.5041,0,0,0-2.5137,1.1441l-3.7318,2.1817-.1482,1.08a9.603,9.603,0,0,1,2.852-1.1537c.5575,0,.506.7155.506,1.0732,0,1.3792-2.1689,7.6893-2.1689,10.49,0,1.0764.2837,2.214,1.2375,2.214.7832,0,2.6362-1.3181,4.4055-2.43,1.4243-.9217,2.7-1.7339,2.9261-1.9046-.0225.493-.4447,2.4267-.4447,3.31a.8587.8587,0,0,0,.825.9314c1.15,0,7.1963-4.3119,7.1963-4.3119l.2126-1.1989c-.8991.59-3.7931,2.4944-4.4376,2.4944-.564,0-.5252-1.0539-.5252-1.2955a32.75,32.75,0,0,1,1.17-6.281Z" transform="translate(-33.1378 -229.5231)"/><path class="cls-2" d="M422.6408,355.6221a26.6122,26.6122,0,0,0-4.1476,1.8337l-2.4009,1.331-.0871.9829a10.97,10.97,0,0,1,2.9746-1.1376c.3352,0,.7574.0773.7574.9088a16.8085,16.8085,0,0,1-.5286,2.8875l-2.63,10.1289,3.0486-1.1892c.2031-1.0151.6156-2.3557.796-3.1227l2.1013-8.34a5.5774,5.5774,0,0,1,3.3032-1.3181,2.5729,2.5729,0,0,1,2.214,1.2343l1.16-3.7609a5.0561,5.0561,0,0,0-1.4856-.4383,4.6555,4.6555,0,0,0-2.6169,1.1827l-2.4814,1.8273a23.2356,23.2356,0,0,0,.5446-2.5073.4743.4743,0,0,0-.522-.5027" transform="translate(-33.1378 -229.5231)"/><path class="cls-2" d="M439.0594,355.6214c-2.2849,0-6.0264,2.32-7.6442,4.0123-1.84,1.9723-3.0938,5.9169-3.0938,8.7915,0,2.1914.9733,4.2539,3.6319,4.2539,2.285,0,7.1061-2.765,8.3694-4.7986a17.8526,17.8526,0,0,0,2.5748-8.482,3.5833,3.5833,0,0,0-3.8381-3.7771m-6.3036,5.4657c.96-1.8176,2.5266-3.7254,4.3119-3.7254,2.0851,0,2.6846,2.3107,2.6846,4.0509,0,2.8779-1.9594,9.3329-5.6365,9.3329-2.1206,0-2.73-2.32-2.73-4.0058a13.4713,13.4713,0,0,1,1.37-5.6526" transform="translate(-33.1378 -229.5231)"/><path class="cls-2" d="M473.8512,366.7393l-1.0506.738a21.1429,21.1429,0,0,1-3.77,2.0561c-.9056,0-.8218-1.2955-.8218-1.6887a19.7485,19.7485,0,0,1,.6155-3.4386l1.0377-4.6954h1.9272l2.027-.1128,1.5341-1.26h-5.2434l1.1957-4.7566.5414-1.6791-2.2591,1.0474-.9765.4028-1.1086,4.8566-2.3365.18-1.7241,1.2826,3.7737.0387c-.2513,1.0764-1.3342,5.7106-1.3342,5.7106a20.8425,20.8425,0,0,0-.7154,4.3474c0,.8894.4738,2.8682,1.5341,2.8682.9087.0419,2.3719-1.2665,3.1163-1.7693l1.7112-1.36,2.3268-1.779Z" transform="translate(-33.1378 -229.5231)"/><path class="cls-2" d="M485.21,355.5725c-2.43,0-6.01,2.73-7.1221,5.2143a19.2713,19.2713,0,0,0-1.8176,7.7022c0,2.4073,1.0022,4.1476,3.3709,4.1476,2.981,0,6.2843-2.71,8.4209-4.8728v-1.0957c-1.7016,1.4116-4.3958,3.6256-6.4422,3.6256-2.301,0-2.5233-2.6523-2.42-3.9349l6.0457-4.3474A5.3854,5.3854,0,0,0,487.44,357.98a2.1139,2.1139,0,0,0-2.23-2.4073m-2.0206,1.7176c1.0506,0,1.2794.9668,1.2794,1.6565,0,2.894-3.1357,4.5408-5.1853,6.0747.1579-1.9271,1.6887-7.7312,3.9059-7.7312" transform="translate(-33.1378 -229.5231)"/><path class="cls-2" d="M530.3673,357.0114a13.1543,13.1543,0,0,0,1.4212.1c5.2626,0,11.3955-4.4118,11.3955-10.0934,0-1.7112-.5608-4.6342-2.994-4.6342a13.2411,13.2411,0,0,0-3.0357.5027,13.8134,13.8134,0,0,1-3.1905.48,31.6126,31.6126,0,0,1-5.7912-.7026,34.053,34.053,0,0,0-5.8136-.7025c-5.4593,0-13.31,3.9671-13.31,10.2,0,2.807,1.9207,4.7889,2.736,4.7889l.1482-.2385c0-.3-1.9819-1.5243-1.9819-4.2023,0-5.3111,5.4721-8.1051,10.1451-8.1051a39.7,39.7,0,0,1,5.6074.4576c1.8852.1869,3.7544.4448,5.6236.4448a14.6758,14.6758,0,0,0,5.759-1.0958,8.9318,8.9318,0,0,1,3.0422-.9184c.5543,0,1.4276-.1128,1.4276,1.2568,0,4.6536-5.9716,11.6532-11.3471,11.6532-1.1666,0-1.7628-.1-2.1624-.1-.3094,0-.3094.3352-.3094.6091,0,.6027.9539,6.3326,2.1367,12.4557.3834,2.027,1.1988,2.9713,3.3741,2.9713a4.2728,4.2728,0,0,0,3.7609-3.3709l-.4319-.2159c-.5285,0-1.028,2.4943-2.4718,2.4943-.8572,0-1.4018-.3642-1.7789-2.5362Zm1.7629-10.738-.303-.1514a6.1849,6.1849,0,0,0-2.0754,1.1054c-7.8279,6.0876-9.7776,24.0122-18.9978,24.0122a6.0471,6.0471,0,0,1-5.0435-1.94c-1.2181-1.3471-1.27-2.4815-1.5243-2.4815l-.2287.332c0,.2.0193.4447.6864,1.7692.8573,1.6243,3.126,3.2195,6.5839,3.2195,4.1959,0,8.5531-3.0261,10.6284-6.5227,4.5086-7.6378,5.3593-14.486,9.5231-18.6239.348-.3674.7509-.5672.7509-.7187" transform="translate(-33.1378 -229.5231)"/><path class="cls-2" d="M548.7659,355.5725c-2.4073,0-6.01,2.73-7.1286,5.2143a19.7524,19.7524,0,0,0-1.8047,7.7022c0,2.4073,1.0023,4.1476,3.3807,4.1476,2.9777,0,6.2841-2.71,8.4176-4.8728v-1.0957c-1.7016,1.4116-4.3925,3.6256-6.4454,3.6256-2.2945,0-2.5427-2.6523-2.43-3.9349l6.0521-4.3474a5.37,5.37,0,0,0,2.214-4.0316,2.125,2.125,0,0,0-2.2559-2.4073m-2.0077,1.7176c1.0441,0,1.2955.9668,1.2955,1.6565,0,2.894-3.1518,4.5408-5.2143,6.0747.174-1.9271,1.6983-7.7312,3.9188-7.7312" transform="translate(-33.1378 -229.5231)"/><path class="cls-2" d="M562.7331,355.652c-2.8521,0-6.6323,3.2936-6.6323,6.11,0,3.2291,4.46,3.5546,4.46,6.0812a3.4688,3.4688,0,0,1-3.2936,3.0969c-1.6179,0-2.4557-1.434-2.4557-3.1743l.029-.6735-2.8167,1.7467c0,.3029-.0289.5607-.0289.8507a2.8646,2.8646,0,0,0,3.1582,3.0229c3.3967,0,7.9536-2.9423,7.9536-6.7547,0-3.2227-4.602-2.9133-4.602-5.8943a2.6224,2.6224,0,0,1,2.4943-2.6071,3.3443,3.3443,0,0,1,2.6716,1.6532,8.2406,8.2406,0,0,0,1.85-2.098,3.5074,3.5074,0,0,0-2.7876-1.36" transform="translate(-33.1378 -229.5231)"/><path class="cls-2" d="M580.5281,355.6221c-2.0465,0-5.2434,2.7973-7.1995,4.1347.2321-1.1763.7606-3.0648.7606-3.5417a.5552.5552,0,0,0-.6059-.564,35.0992,35.0992,0,0,0-4.196,2.0851l-2.4137,1.418-.1515,1.0377a19.8458,19.8458,0,0,1,2.9036-1.0829c.4286,0,.7573.2965.7573,1.3278a41.0428,41.0428,0,0,1-1.0957,5.9523l-1.15,5.2368-2.2719,9.2556c-.58.0806-1.5115.1643-1.6726.1643,0,0-.6059.5511-.9636.96.67,0,.8669.0451,1.5244.0451,0,0,6.2649.1354,7.3315.09l1.244-1.0086-4.5633-.2933,1.8885-8.6175a9.9856,9.9856,0,0,0,2.2719.2707c2.4654,0,4.1412-1.7112,5.7106-2.9842a8.2521,8.2521,0,0,0,2.9392-4.2733,17.8779,17.8779,0,0,0,1.3663-6.2874c0-1.6146-.6381-3.3258-2.4137-3.3258m-1.9239,2.6813c1.2761,0,1.4437,1.6532,1.4437,2.5685a16.1678,16.1678,0,0,1-1.4116,5.7331c-1.54,3.4579-3.1711,3.8608-4.3216,3.8608a5.4493,5.4493,0,0,1-3.0486-1.0313l1.75-8.1083c1.2987-.97,4.0509-3.0228,5.5882-3.0228" transform="translate(-33.1378 -229.5231)"/><path class="cls-2" d="M595.8154,355.6214c-2.2945,0-6.0231,2.32-7.6377,4.0123-1.8531,1.9723-3.09,5.9169-3.09,8.7915,0,2.1914.9732,4.2539,3.6,4.2539,2.3075,0,7.1286-2.765,8.4048-4.7986a17.8008,17.8008,0,0,0,2.5653-8.482,3.5793,3.5793,0,0,0-3.8415-3.7771m-6.297,5.4657c.9474-1.8176,2.52-3.7254,4.3055-3.7254,2.085,0,2.6813,2.3107,2.6813,4.0509,0,2.8779-1.9627,9.3329-5.64,9.3329-2.111,0-2.7232-2.32-2.7232-4.0058a13.3841,13.3841,0,0,1,1.3761-5.6526" transform="translate(-33.1378 -229.5231)"/><path class="cls-2" d="M615.6808,355.6221c-.9732,0-4.07,2.0625-4.6277,2.3945l-3.703,2.2462s.8766-3.4966.8766-4.0477a.53.53,0,0,0-.5768-.535,26.5256,26.5256,0,0,0-4.3764,2.1915l-1.8789,1.0763-.1192,1.0377a13.2748,13.2748,0,0,1,2.9649-1.2246c.2417,0,.4866.0709.4866.7219a41.63,41.63,0,0,1-.8508,4.5858l-2.1657,8.4886,2.9746-1.1376,2.2784-9.5359,2.3461-1.4695a15.24,15.24,0,0,1,3.226-1.7468c.3223,0,.4447.1644.4447.5995,0,1.6049-2.301,9.6648-2.301,11.55a3.42,3.42,0,0,0,.651,1.969c1.2053-.3641,5.7106-3.387,7.3541-4.6471l.2579-1.1763c-1.0957.6027-3.5546,2.42-4.4281,2.42-.5284,0-.6509-.5446-.6509-1.1666,0-2.5781,2.62-10.638,2.62-11.9561,0-.4-.245-.6381-.8025-.6381" transform="translate(-33.1378 -229.5231)"/><path class="cls-2" d="M640.7526,344.8632a4.6066,4.6066,0,0,0-3.0132,1.0957,17.8461,17.8461,0,0,0-3.69,3.1c-1.621,1.8788-1.621,2.9971-2.2268,5.4593l-.3158,1.2923c-.5254-.0387-1.0474-.187-1.576-.187a7.7235,7.7235,0,0,0-3.271,1.389c-.3191.1773-3.3225,1.9336-4.2088,4.1863-1.0829,2.7328-2.098,6.0071-2.098,8.134,0,.8895.4866,3.3033,1.692,3.3033,1.2923,0,6.5065-4.0413,6.7256-4.1476l-.232,2.8c0,.3738.0129,1.3471.867,1.3471,1.1376,0,7.38-4.4215,7.4508-4.5569l.1225-1.2021c-1.012.6027-3.9414,2.8134-4.8276,2.8134-.6156,0-.6156-.8507-.6156-1.0957a15.8638,15.8638,0,0,1,.3545-2.2913l.7381-3.5675,2.0914-9.3039c1.1731-5.1112,2.2173-6.4132,4.1863-6.4132a11.0783,11.0783,0,0,1,1.8466.2643l1.4115-2.2687a9.9513,9.9513,0,0,0-1.4115-.1515m-12.0238,12.6425a3.1427,3.1427,0,0,1,2.1753,1.0056l-1.8208,8.5369c-.4093.1063-3.7093,2.8391-4.8308,2.8391-.9507,0-.9507-1.1924-.9507-1.766,0-3.1292,1.6049-10.6156,5.427-10.6156" transform="translate(-33.1378 -229.5231)"/><path class="cls-2" d="M647.3223,355.5725c-2.4138,0-5.9878,2.73-7.1189,5.2143a19.53,19.53,0,0,0-1.8079,7.7022c0,2.4073.999,4.1476,3.38,4.1476,2.9778,0,6.2714-2.71,8.4209-4.8728v-1.0957c-1.6984,1.4116-4.3989,3.6256-6.455,3.6256-2.2849,0-2.53-2.6523-2.4074-3.9349l6.0329-4.3474a5.3582,5.3582,0,0,0,2.2108-4.0316,2.1312,2.1312,0,0,0-2.2559-2.4073m-2.0206,1.7176c1.06,0,1.3116.9668,1.3116,1.6565,0,2.894-3.1518,4.5408-5.2046,6.0747.1547-1.9271,1.679-7.7312,3.893-7.7312" transform="translate(-33.1378 -229.5231)"/><rect class="cls-1" x="243.8987" y="128.2765" width="51.0859" height="1.9111"/><rect class="cls-1" x="626.6663" y="128.2765" width="51.0957" height="1.9111"/><path class="cls-1" d="M207.7879,277.8088q-12.3171,2.92-24.96,5.0145a375.0588,375.0588,0,0,1-61.1793,4.9984h-.2643a375.6,375.6,0,0,1-61.1278-4.9855q-12.6555-2.0835-24.9855-5.0145a45.2367,45.2367,0,0,0-2.0142,10.3867c-.0709,1.0635-.1192,2.1141-.1192,3.1679,0,1.0764.0483,2.1334.1192,3.1937a45.68,45.68,0,0,0,2.3558,11.4276q12.2011-3.21,24.7212-5.5172a337.7709,337.7709,0,0,1,61.0505-5.5559h.2643a337.394,337.394,0,0,1,61.0955,5.5559q12.5009,2.3106,24.6858,5.5172a44.476,44.476,0,0,0,.3578-28.1888" transform="translate(-33.1378 -229.5231)"/><path class="cls-1" d="M180.0773,311.4549a184.6468,184.6468,0,0,0-57.2671-9.4263c-.4254-.0064-.8411-.0064-1.273-.0064s-.8637,0-1.2987.0064A185.1685,185.1685,0,0,0,43.12,319.3505l-.3416.1515A65.5479,65.5479,0,0,0,55.25,332.3025c.6606-.5157,1.3181-1.0409,1.9787-1.5469a105.7539,105.7539,0,0,1,60.609-21.6435c1.2246-.0419,2.4589-.071,3.7-.071,1.2473,0,2.4654.0291,3.6675.071a105.83,105.83,0,0,1,60.6186,21.6209c.6735.5157,1.3471,1.0474,1.9916,1.57a66.5244,66.5244,0,0,0,12.4944-12.8l-.3739-.1579a182.23,182.23,0,0,0-19.8581-7.8892" transform="translate(-33.1378 -229.5231)"/><path class="cls-1" d="M166.5665,335.5764c-.2708-.3-.5576-.59-.8444-.883a61.7166,61.7166,0,0,0-44.1862-18.56,61.6963,61.6963,0,0,0-44.1733,18.56c-.2933.2932-.5769.5833-.8637.883a63.7035,63.7035,0,0,0-5.4173,6.6033c13.893,6.7708,30.6767,10.8185,48.814,11.06.5446,0,1.086.0161,1.64.0161.5511,0,1.1022-.0161,1.6468-.0161,18.1405-.2417,34.9177-4.2894,48.8172-11.06a59.86,59.86,0,0,0-5.4334-6.6033" transform="translate(-33.1378 -229.5231)"/><path class="cls-1" d="M76.4606,247.2027c.29.3158.5736.6027.8733.9024a61.637,61.637,0,0,0,36.2939,18.0373,61.4429,61.4429,0,0,0,15.7879,0,61.5838,61.5838,0,0,0,36.2906-18.076c.274-.29.5576-.5608.8186-.8637a56.6844,56.6844,0,0,0,5.43-6.6259c-13.8543-6.7611-30.6316-10.7959-48.7721-11.0312-.5446-.0064-1.0957-.0225-1.6467-.0225-.5544,0-1.099.0161-1.64.0225-18.1437.2353-34.96,4.283-48.8527,11.0667a60.0174,60.0174,0,0,0,5.4174,6.59" transform="translate(-33.1378 -229.5231)"/><path class="cls-1" d="M62.9782,271.36a185.6148,185.6148,0,0,0,57.2606,9.42h2.5653a185.2525,185.2525,0,0,0,57.2735-9.4488,179.695,179.695,0,0,0,19.8581-7.8924h.0162l.3576-.174a67.51,67.51,0,0,0-12.52-12.8231c-.6639.5156-1.3083,1.0538-2.0109,1.5694a100.9788,100.9788,0,0,1-11.2182,7.4767,105.5088,105.5088,0,0,1-49.33,14.1508c-1.2278.0418-2.4911.0644-3.7286.0644-1.244,0-2.4589-.0226-3.69-.0644a105.3954,105.3954,0,0,1-49.3167-14.1122,107.541,107.541,0,0,1-11.2665-7.5024c-.6607-.5059-1.3277-1.0377-1.9852-1.55a67.06,67.06,0,0,0-12.4943,12.82l.3577.1643a180.4637,180.4637,0,0,0,19.8711,7.902" transform="translate(-33.1378 -229.5231)"/></svg>